<?xml version="1.0" standalone="no"?>
<!DOCTYPE svg PUBLIC "-//W3C//DTD SVG 20010904//EN"
 "http://www.w3.org/TR/2001/REC-SVG-20010904/DTD/svg10.dtd">
<svg version="1.0" xmlns="http://www.w3.org/2000/svg"
 width="512.000000pt" height="512.000000pt" viewBox="0 0 512.000000 512.000000"
 preserveAspectRatio="xMidYMid meet">

<g transform="translate(0.000000,512.000000) scale(0.100000,-0.100000)"
fill="#FFFFFF" stroke="none">
<path d="M2085 5099 c-673 -143 -1267 -550 -1652 -1131 -84 -127 -217 -389
-265 -523 -117 -322 -162 -567 -162 -880 -1 -373 78 -712 244 -1050 380 -778
1139 -1329 2030 -1475 901 -147 1783 124 2428 744 163 157 369 413 398 495 38
106 -17 227 -121 267 -50 19 -99 17 -265 -12 -150 -26 -557 -26 -720 -1 -1139
179 -1960 1072 -1960 2133 0 377 100 730 304 1074 30 50 58 109 61 131 18 103
-51 209 -156 239 -44 13 -57 12 -164 -11z m-315 -562 c0 -1 -14 -42 -30 -91
-144 -423 -167 -897 -65 -1331 241 -1022 1121 -1816 2212 -1994 109 -18 318
-38 463 -44 l55 -2 -100 -84 c-278 -232 -620 -406 -967 -491 -216 -53 -321
-64 -583 -65 -257 0 -365 12 -575 61 -634 148 -1179 547 -1483 1084 -265 468
-333 981 -201 1500 87 341 256 653 503 929 90 101 263 248 396 337 137 91 375
213 375 191z"/>
</g>
</svg>
